<?xml version="1.0" encoding="UTF-8"?>
<svg width="400px" height="66px" viewBox="0 0 400 66" version="1.1" xmlns="http://www.w3.org/2000/svg" xmlns:xlink="http://www.w3.org/1999/xlink">
    <!-- Generator: Sketch 51.2 (57519) - http://www.bohemiancoding.com/sketch -->
    <title>wt-logo</title>
    <desc>Created with Sketch.</desc>
    <defs>
        <polygon id="path-1" points="0.0397297297 0.0366666667 48.5695946 0.0366666667 48.5695946 31.822 0.0397297297 31.822"></polygon>
        <polygon id="path-3" points="0.615775701 0.248666667 70.8374299 0.248666667 70.8374299 13.96 0.615775701 13.96"></polygon>
    </defs>
    <g id="Page-1" stroke="none" stroke-width="1" fill="none" fill-rule="evenodd">
        <g id="Заглушка" transform="translate(-100.000000, -105.000000)">
            <g id="wt-logo" transform="translate(100.000000, 105.000000)">
                <path d="M300.990556,28.0167205 L297.474782,28.0167205 L299.45797,22.6646812 C299.652242,22.087075 299.841117,21.5428564 300.035388,21.0119928 C300.22966,20.4898101 300.385482,20.0190443 300.512972,19.6016988 C300.647208,19.1916985 300.790888,18.7082454 300.952781,18.1693688 L301.041148,18.1693688 C301.202366,18.7082454 301.352117,19.1916985 301.479608,19.6016988 C301.607098,20.0190443 301.774388,20.4898101 301.963263,21.0119928 C302.157534,21.5428564 302.351806,22.087075 302.540681,22.6646812 L304.518472,28.0167205 L300.990556,28.0167205 Z M300.990556,12 L297.719645,12 L288,37 L294.142487,37 L295.787049,32.6482545 L306.212277,32.6482545 L307.850768,37 L314,37 L304.279006,12 L300.990556,12 Z" id="Fill-1" fill="#0A0B09"></path>
                <g id="Group-5" transform="translate(0.000000, 5.000000)">
                    <mask id="mask-2" fill="white">
                        <use xlink:href="#path-1"></use>
                    </mask>
                    <g id="Clip-3"></g>
                    <path d="M35.8057568,22.8533333 L32.3512568,22.8533333 L34.2867568,17.51 C34.4807703,16.9333333 34.6767703,16.39 34.8621757,15.86 C35.0528784,15.3386667 35.2137838,14.8686667 35.3369459,14.452 C35.4620946,14.0426667 35.6011486,13.56 35.7620541,13.022 L35.8547568,13.022 C36.0156622,13.56 36.1514054,14.0426667 36.2825135,14.452 C36.4056757,14.8686667 36.5659189,15.3386667 36.7486757,15.86 C36.9426892,16.39 37.1333919,16.9333333 37.3214459,17.51 L39.2622432,22.8533333 L35.8057568,22.8533333 Z M35.8057568,6.86266667 L32.5856622,6.86266667 L23.0439054,31.822 L29.0748784,31.822 L30.6912162,27.4773333 L40.9308919,27.4773333 L42.5366351,31.822 L48.5695946,31.822 L39.0278378,6.86266667 L35.8057568,6.86266667 Z" id="Fill-2" fill="#0A0B09" mask="url(#mask-2)"></path>
                    <path d="M17.5373649,14.1173333 C16.5805405,14.9793333 15.043,15.404 12.9161351,15.404 L9.91256757,15.404 L9.91256757,5.19666667 L13.0585,5.19666667 C15.1549054,5.19666667 16.66,5.61933333 17.5837162,6.45666667 C18.5054459,7.302 18.9682973,8.53466667 18.9682973,10.1566667 C18.9682973,11.9433333 18.4888919,13.2606667 17.5373649,14.1173333 Z M25.6448784,10.066 C25.6448784,8.34733333 25.3396216,6.85733333 24.7291081,5.60533333 C24.1073378,4.34266667 23.2624189,3.30266667 22.1883919,2.47666667 C21.1143649,1.65066667 19.8357297,1.04133333 18.3524865,0.640666667 C16.8699054,0.245333333 15.2668108,0.0366666667 13.5650541,0.0366666667 L0,0.0366666667 L0,2.74533333 L3.23333784,2.74533333 L3.23333784,31.822 L9.91256757,31.822 L9.91256757,20.5093333 L12.8538919,20.5093333 C14.8138919,20.5093333 16.5752432,20.29 18.1644324,19.848 C19.7456757,19.4033333 21.0839054,18.7393333 22.1883919,17.8666667 C23.2981757,16.9906667 24.1483919,15.9006667 24.7509595,14.5946667 C25.3482297,13.2906667 25.6448784,11.784 25.6448784,10.066 Z" id="Fill-4" fill="#0A0B09" mask="url(#mask-2)"></path>
                </g>
                <path d="M123.69317,22.9104374 C123.534438,23.1386139 123.276416,23.4161618 122.913226,23.7510875 C122.561141,24.0806757 122.152226,24.4075952 121.687134,24.7258413 C121.222042,25.0474233 120.707959,25.3142964 120.159908,25.5391369 C119.589648,25.7699821 119.016775,25.8747298 118.43541,25.8747298 C117.281825,25.8747298 116.405205,25.5698273 115.776155,24.9680286 C115.160169,24.3608924 114.847931,23.4541912 114.847931,22.2459235 L114.847931,12.022017 L114.780649,12.022017 L114.780649,12 L105,12 L105,14.7080943 L108.541101,14.7080943 L108.541101,23.5782872 C108.541101,25.8440394 109.136183,27.6761229 110.338106,29.0745376 C111.540029,30.4722852 113.414115,31.172827 115.969508,31.172827 C116.902305,31.172827 117.782191,31.063409 118.586303,30.8379013 C119.400867,30.6237357 120.132473,30.3241707 120.791571,29.9558859 C121.44479,29.5882683 122.009824,29.1979664 122.491247,28.7889835 C122.975282,28.3686584 123.373093,27.9756879 123.69317,27.5940594 L123.69317,37 L130,37 L130,12.022017 L123.69317,12.022017 L123.69317,22.9104374" id="Fill-6" fill="#0A0B09"></path>
                <polyline id="Fill-7" fill="#0A0B09" points="208.683726 21.5267962 198.006787 21.5267962 198.006787 12 188 12 188 14.7036404 191.541367 14.7036404 191.541367 37 198.006787 37 198.006787 26.6858653 208.683726 26.6858653 208.683726 37 215 37 215 12.0193498 208.683726 12.0193498 208.683726 21.5267962"></polyline>
                <polyline id="Fill-8" fill="#0A0B09" points="332.807566 21.5148108 322.338655 21.5148108 322.338655 12 316 12 316 37 322.338655 37 322.338655 26.677876 332.807566 26.677876 332.807566 37 339 37 339 12 332.807566 12 332.807566 21.5148108"></polyline>
                <path d="M64.7301426,30.8199488 C63.8988856,32.1676759 62.7114695,32.8418748 61.1751225,32.8418748 C59.5382362,32.8418748 58.2555376,32.0053315 57.3414834,30.330903 C56.4215152,28.663183 55.9694165,25.9174155 55.9694165,22.1003089 C55.9694165,21.8635008 55.9694165,21.5596081 55.9694165,21.1778974 C55.9694165,20.8055786 55.9805876,20.4795481 56.0154149,20.2085268 C56.5864524,19.4269927 57.2409441,18.7447436 57.9907182,18.1839174 C58.7483777,17.623762 59.8004271,17.3420072 61.1751225,17.3420072 C62.8468362,17.3420072 64.0611943,18.0712155 64.8352819,19.5376821 C65.606741,21.0041486 65.9878707,22.8825139 65.9878707,25.1667402 C65.9878707,27.5938565 65.5659995,29.4749051 64.7301426,30.8199488 Z M69.8675081,15.7373466 C68.8798565,14.6546032 67.7463242,13.8368435 66.4366837,13.2766881 C65.1329573,12.7158619 63.7286915,12.4314238 62.2298004,12.4314238 C60.7230238,12.4314238 59.4514963,12.6990908 58.3935328,13.2263748 C57.3414834,13.7543296 56.4648851,14.3755318 55.764395,15.0913232 C55.9017332,12.7044576 56.6377077,10.8710389 57.9907182,9.59173802 C59.3463571,8.31310795 61.12321,7.47388119 63.3311338,7.05661576 L71.3440572,5.67802983 L70.446431,0 L62.3842236,1.5355636 C59.8411686,2.01588843 57.7173562,2.8088269 56.0154149,3.91907494 C54.3108452,5.02395622 52.9446924,6.39918792 51.9057854,8.03671992 C50.870164,9.67223939 50.1256469,11.583476 49.6742053,13.7623797 C49.2247351,15.9439668 49,18.3529703 49,20.9739606 C49,23.357472 49.2168497,25.586689 49.6498918,27.6468532 C50.0908195,29.7150675 50.7781672,31.5109189 51.7329628,33.0417866 C52.679873,34.578021 53.927087,35.7875541 55.4614626,36.6770942 C57.0030666,37.5572425 58.869945,38 61.0752403,38 C62.7462969,38 64.2971005,37.7068409 65.7361936,37.1104599 C67.1647729,36.5167623 68.4336719,35.6661312 69.5152917,34.5498455 C70.6028256,33.4510019 71.4610246,32.0905287 72.0721463,30.4885515 C72.6918106,28.8892577 73,27.0746226 73,25.0667844 C73,23.0562627 72.721381,21.2664489 72.1720286,19.6919763 C71.6200476,18.1262247 70.8545026,16.8033189 69.8675081,15.7373466 Z" id="Fill-9" fill="#0A0B09"></path>
                <path d="M96.9695236,27.0447915 C96.7020277,27.988248 96.2905966,28.8157827 95.7385166,29.5354363 C95.1890655,30.2584403 94.4831917,30.8300088 93.6195808,31.2682336 C92.750712,31.6957373 91.7063606,31.9108293 90.4727246,31.9108293 C89.3067842,31.9108293 88.3025243,31.6957373 87.4257686,31.2682336 C86.5628149,30.8300088 85.853655,30.2530797 85.2910591,29.5106438 C84.7199192,28.7802691 84.2979723,27.9279419 84.0357343,26.9730942 C83.7649522,26.0102057 83.6321901,24.9923715 83.6321901,23.9055203 C83.6321901,22.8488222 83.7649522,21.8470697 84.0357343,20.9009329 C84.2979723,19.9601567 84.7199192,19.1299418 85.2910591,18.4096181 C85.853655,17.695325 86.5707018,17.1217463 87.4474575,16.7049637 C88.3380151,16.2908613 89.3744797,16.0871605 90.5699959,16.0871605 C91.7661693,16.0871605 92.8000049,16.3049327 93.6629585,16.7324365 C94.5265695,17.1659708 95.2350722,17.7395495 95.7871522,18.4598732 C96.3359461,19.1795268 96.7394903,20.0264935 96.9912125,20.9974228 C97.2429347,21.9743828 97.3671527,22.9948972 97.3671527,24.0462347 C97.3671527,25.1022628 97.2376768,26.0986547 96.9695236,27.0447915 Z M100.544242,14.8649554 C99.3940751,13.6950157 97.9842993,12.7569197 96.3070276,12.0566981 C94.6290986,11.3531261 92.6941895,11 90.4970424,11 C88.3051532,11 86.3623573,11.3671976 84.6877145,12.1002526 C83.0071566,12.837328 81.6026387,13.8028968 80.4551009,15.0056698 C79.3108493,16.2084429 78.4452667,17.5854337 77.8688688,19.1574146 C77.2839269,20.7220246 77,22.3549817 77,24.0462347 C77,25.7730014 77.2950999,27.4173496 77.8905577,28.9900005 C78.4853582,30.5512602 79.3594849,31.9275811 80.5070227,33.1129323 C81.6407585,34.2935931 83.0643363,35.2370496 84.7659259,35.9406216 C86.4517417,36.6415133 88.3997955,37 90.5890558,37 C92.8184075,37 94.7671186,36.6354827 96.4503055,35.9205196 C98.1302062,35.1981857 99.5242083,34.2386475 100.638884,33.0352044 C101.75356,31.8418123 102.592196,30.45142 103.155449,28.868048 C103.718045,27.284676 104,25.632287 104,23.9055203 C104,22.1787537 103.710158,20.5317252 103.13376,18.9617545 C102.554733,17.3891037 101.685865,16.0322148 100.544242,14.8649554 Z" id="Fill-10" fill="#0A0B09"></path>
                <polyline id="Fill-11" fill="#0A0B09" points="142.379511 26.4828922 151.641035 26.4828922 151.641035 21.8974332 142.379511 21.8974332 142.379511 16.9787655 152.758981 16.9787655 152.758981 12 136 12 136 37 153 37 153 32.0305831 142.379511 32.0305831 142.379511 26.4828922"></polyline>
                <path d="M169.128197,21.3602911 C167.58928,22.1451415 165.571677,22.6688192 163.080097,22.9346556 L163.127831,22.7347786 C163.437093,21.5135301 163.872078,20.4115416 164.434129,19.4321443 C164.998869,18.447417 165.684625,17.6545715 166.484674,17.0376179 C167.290102,16.4366544 168.20915,16.12951 169.227699,16.12951 C170.802921,16.12951 171.586163,16.8097581 171.586163,18.1562628 C171.586163,19.4787823 170.763928,20.5481242 169.128197,21.3602911 Z M175.970968,12.6789668 C174.616936,11.5623206 172.748587,11 170.354491,11 C168.378572,11 166.50955,11.4030853 164.740702,12.2092558 C162.991352,13.0240877 161.461174,14.1567241 160.18513,15.597171 C158.895639,17.0316216 157.885157,18.7379049 157.13217,20.6993645 C156.379183,22.6688192 156,24.8028393 156,27.1040898 C156,28.5578618 156.207744,29.8937064 156.617181,31.1116236 C157.029307,32.3342046 157.633041,33.37623 158.43309,34.2376999 C159.241206,35.1044998 160.242948,35.7767528 161.433609,36.275779 C162.631666,36.7581488 164.013263,37 165.596553,37 C166.820157,37 167.940898,36.8953977 168.95138,36.6761993 C169.955811,36.4563346 170.86948,36.1765068 171.688354,35.8367159 C172.51395,35.5042538 173.24139,35.1151599 173.892186,34.6980832 C174.54231,34.2763428 175.123858,33.8592661 175.638175,33.4475195 L173.0202,29.0788745 C172.239648,29.7624539 171.307154,30.3634174 170.224735,30.8844301 C169.155762,31.4081078 167.960395,31.6739442 166.662164,31.6739442 C165.128625,31.6739442 164.0852,31.1995695 163.539957,30.25082 C163.096904,29.4712997 162.819913,28.4372694 162.725789,27.1507278 C164.768939,26.9481857 166.681661,26.6130586 168.466644,26.1333538 C170.341045,25.6643091 171.990221,25.0220377 173.40745,24.2271935 C174.82468,23.4343481 175.943404,22.4849323 176.762277,21.3602911 C177.587202,20.2436449 178,18.9217917 178,17.3993952 C178,15.3639811 177.321639,13.7896166 175.970968,12.6789668 Z" id="Fill-12" fill="#0A0B09"></path>
                <path d="M382.131658,21.3602911 C380.59194,22.1451415 378.57598,22.6688192 376.072341,22.9346556 L376.1275,22.7347786 C376.443649,21.5135301 376.87617,20.4115416 377.440531,19.4321443 C377.994802,18.447417 378.681587,17.6545715 379.489451,17.0376179 C380.299333,16.4366544 381.212805,16.12951 382.231884,16.12951 C383.804562,16.12951 384.596955,16.8097581 384.596955,18.1562628 C384.596955,19.4787823 383.771602,20.5481242 382.131658,21.3602911 Z M388.98404,12.6789668 C387.626613,11.5623206 385.754602,11 383.361279,11 C381.372898,11 379.512322,11.4030853 377.745246,12.2092558 C375.989604,13.0240877 374.466703,14.1567241 373.17587,15.597171 C371.896472,17.0316216 370.883446,18.7379049 370.129395,20.6993645 C369.376017,22.6688192 369,24.8028393 369,27.1040898 C369,28.5578618 369.204488,29.8937064 369.620192,31.1116236 C370.029842,32.3342046 370.633217,33.37623 371.442426,34.2376999 C372.239528,35.1044998 373.242463,35.7767528 374.439124,36.275779 C375.629732,36.7581488 377.020119,37 378.592796,37 C379.822418,37 380.941723,36.8953977 381.949367,36.6761993 C382.957684,36.4563346 383.876536,36.1765068 384.691127,35.8367159 C385.511099,35.5042538 386.253042,35.1151599 386.906867,34.6980832 C387.549257,34.2763428 388.130435,33.8592661 388.651746,33.4475195 L386.037119,29.0788745 C385.239344,29.7624539 384.314438,30.3634174 383.240201,30.8844301 C382.153856,31.4081078 380.974011,31.6739442 379.678469,31.6739442 C378.13337,31.6739442 377.092093,31.1995695 376.548584,30.25082 C376.099921,29.4712997 375.818076,28.4372694 375.71785,27.1507278 C377.773497,26.9481857 379.68385,26.6130586 381.467743,26.1333538 C383.351189,25.6643091 384.995842,25.0220377 386.413135,24.2271935 C387.82572,23.4343481 388.950407,22.4849323 389.770379,21.3602911 C390.589678,20.2436449 391,18.9217917 391,17.3993952 C391,15.3639811 390.330031,13.7896166 388.98404,12.6789668 Z" id="Fill-13" fill="#0A0B09"></path>
                <path d="M232.753076,29.8809365 C232.22256,30.4916568 231.606119,31.0102685 230.898546,31.4367716 C230.180559,31.8592699 229.306996,32.0668481 228.288274,32.0668481 C227.532532,32.0668481 226.84644,31.8679468 226.25148,31.4587976 C225.65652,31.0569903 225.361644,30.3895364 225.361644,29.4797967 C225.361644,28.012733 225.961811,26.9741747 227.168656,26.3474354 C228.374198,25.7120193 229.955333,25.404323 231.906203,25.404323 L232.753076,25.404323 L232.753076,29.8809365 Z M239.30805,29.0646403 L239.30805,20.1614725 C239.30805,16.8695898 238.509346,14.5228218 236.928861,13.1158289 C235.33666,11.7061662 232.88717,11 229.574533,11 C227.291033,11 225.334956,11.3650973 223.695236,12.0959593 C222.060073,12.8214817 220.75754,13.6517944 219.798053,14.5642039 L222.676513,18.6830621 C223.405567,18.1063819 224.27913,17.5784258 225.313474,17.0838425 C226.332197,16.5892591 227.51105,16.3416337 228.829206,16.3416337 C230.287964,16.3416337 231.306035,16.6253016 231.879514,17.1826257 C232.463408,17.7459568 232.753076,18.6169841 232.753076,19.8043847 L232.753076,21.2253941 L231.906203,21.2253941 C230.325067,21.2253941 228.754347,21.3842481 227.195344,21.6866047 C225.640898,21.994301 224.252441,22.4975612 223.051455,23.1923808 C221.840055,23.8878677 220.870153,24.7942702 220.120269,25.9155928 C219.380149,27.0369153 219,28.4105355 219,30.0377882 C219,31.1537711 219.197235,32.1442727 219.578686,33.0126303 C219.958836,33.8756482 220.468522,34.6065102 221.111652,35.1998768 C221.759989,35.7959131 222.526797,36.247112 223.421841,36.5494686 C224.311026,36.8571649 225.27572,37 226.300301,37 C227.891851,37 229.252968,36.6696103 230.400577,35.9888073 C231.536468,35.3093392 232.436719,34.5564512 233.10133,33.748832 C233.133877,34.1226062 233.182046,34.5838168 233.24649,35.1231196 C233.321348,35.6664271 233.407272,36.0929301 233.503611,36.3952867 L240,36.3952867 C239.83401,35.6170355 239.677784,34.6225291 239.528068,33.4191097 C239.377701,32.2103507 239.30805,30.7633106 239.30805,29.0646403 Z" id="Fill-14" fill="#0A0B09"></path>
                <path d="M261.329555,25.4640998 C260.813798,24.9648987 260.211752,24.5588372 259.539227,24.2392145 C258.860773,23.921602 258.145432,23.7145508 257.391229,23.6153807 L257.391229,23.5215711 C258.709274,23.1657647 259.799411,22.5452812 260.667568,21.6487294 C261.535067,20.7575383 261.958606,19.4609556 261.958606,17.7670223 C261.958606,16.5836813 261.692494,15.5624968 261.166199,14.724241 C260.629364,13.8665533 259.929832,13.1683418 259.067603,12.6081645 C258.204715,12.0506675 257.212723,11.645276 256.094921,11.3832792 C254.977778,11.126643 253.838239,11 252.673011,11 C250.791125,11 249.233975,11.2264832 248.008147,11.6700686 C246.782978,12.1170043 245.686913,12.6631101 244.704802,13.3003453 L247.113642,17.5184269 C247.834252,17.0466986 248.62139,16.6305861 249.47308,16.2774599 C250.313573,15.9243338 251.343768,15.7474357 252.53732,15.7474357 C253.60572,15.7474357 254.440943,16.0208237 255.037719,16.561569 C255.633836,17.1076749 255.926954,17.8139271 255.926954,18.6776455 C255.926954,19.6653265 255.558086,20.412453 254.821009,20.9344364 C254.078003,21.4416783 253.025412,21.6983145 251.642156,21.6983145 L249.47308,21.6983145 L249.47308,25.8172259 L252.53732,25.8172259 C253.817161,25.8172259 254.863824,26.0899438 255.645034,26.6333694 C256.431513,27.176795 256.827388,27.9768569 256.827388,29.033555 C256.827388,30.1512293 256.398579,30.9452606 255.552817,31.4143085 C254.707055,31.8726354 253.632727,32.1084996 252.347617,32.1084996 C251.023644,32.1084996 249.852487,31.9027885 248.8381,31.5054379 C247.813174,31.1054069 246.983221,30.666512 246.354169,30.1813824 L244,34.5971342 C244.721928,35.1760734 245.757393,35.7168187 247.085977,36.2327715 C248.426417,36.7400134 250.112671,37 252.157913,37 C253.572786,37 254.939574,36.8505747 256.257618,36.5637854 C257.580933,36.276996 258.73628,35.8381011 259.72893,35.2424102 C260.716311,34.6574403 261.50806,33.8902118 262.110106,32.9742281 C262.701612,32.0408226 263,30.9539714 263,29.7096541 C263,28.7802691 262.847842,27.9634555 262.554724,27.2625638 C262.256994,26.5563115 261.849922,25.9579403 261.329555,25.4640998" id="Fill-15" fill="#0A0B09"></path>
                <path d="M279.609139,31.7474559 C278.898545,32.184834 277.755474,32.4132055 276.198966,32.4132055 L273.377669,32.4132055 L273.377669,26.2905793 L276.446484,26.2905793 C279.267782,26.2905793 280.674011,27.3296028 280.674011,29.3996367 C280.674011,30.5161196 280.320413,31.2967227 279.609139,31.7474559 Z M273.377669,16.5393841 L275.857609,16.5393841 C278.455868,16.5393841 279.743778,17.4348407 279.743778,19.2224151 C279.743778,20.2394028 279.44118,20.992628 278.831225,21.4680681 C278.20971,21.9468469 277.167959,22.1859024 275.71277,22.1859024 L273.377669,22.1859024 L273.377669,16.5393841 Z M285.281654,25.8638853 C284.743778,25.3503833 284.122263,24.9544058 283.427989,24.6712786 C282.728274,24.3854804 281.98912,24.1951708 281.215966,24.0963434 L281.215966,24.002858 C282.576635,23.6810011 283.702706,23.0820268 284.598259,22.2052672 C285.493812,21.330511 285.931049,20.052432 285.931049,18.3590107 C285.931049,17.1523812 285.673331,16.1373968 285.157895,15.3267448 C284.637699,14.5127541 283.948864,13.8556852 283.081191,13.3635514 C282.230518,12.8714175 281.233646,12.5195117 280.090575,12.3138439 C278.959744,12.1101792 277.755474,12 276.490684,12 L267,12 L267,37 L276.395485,37 C277.952672,37 279.379981,36.8791367 280.674011,36.6427522 C281.97756,36.4063677 283.092071,36.0077192 284.032504,35.4468068 C284.973616,34.8912364 285.70733,34.1707311 286.222086,33.2966425 C286.736842,32.4185475 287,31.3488074 287,30.0707284 C287,29.1465584 286.849721,28.3412484 286.546444,27.6541307 C286.232966,26.969684 285.813409,26.375384 285.281654,25.8638853 Z" id="Fill-16" fill="#0A0B09"></path>
                <path d="M360.077948,14.6218544 C359.476716,17.897546 358.815625,20.6189398 358.106515,22.7886382 C357.385563,24.9531319 356.6383,26.6622167 355.896957,27.9210971 C355.143773,29.1773753 354.39059,30.0608687 353.659114,30.5754808 C352.928296,31.08684 352.240235,31.3464231 351.606771,31.3464231 C350.79899,31.3464231 350.268802,31.0439014 349.998445,30.4466651 C349.732693,29.8546335 349.716248,28.8826606 349.94911,27.5216384 L352.754636,12 L346.22266,12 L343.325042,27.8215578 C342.761963,30.7953782 342.929703,33.0704713 343.834181,34.640331 C344.733396,36.2173472 346.254893,37 348.388803,37 C349.60771,37 350.669403,36.7905119 351.606771,36.3786921 C352.538219,35.9655711 353.378232,35.4275379 354.114971,34.7684961 C354.845789,34.103599 355.50096,33.3755953 356.069959,32.5831837 C356.6383,31.7888204 357.136914,31.0120228 357.575668,30.2514898 L357.678285,30.2514898 C357.505283,31.079033 357.342806,32.0809327 357.196116,33.2526349 C357.044822,34.4256382 356.919839,35.4594166 356.817222,36.3565722 L363.246581,36.3565722 C363.273551,35.4594166 363.398533,34.0021079 363.64192,31.9872485 C363.87544,29.9697869 364.297091,27.2913316 364.898322,23.9486299 L367,12.1925729 L360.532489,12.1925729 L360.077948,14.6218544" id="Fill-17" fill="#0A0B09"></path>
                <g id="Group-22" transform="translate(161.000000, 52.000000)">
                    <mask id="mask-4" fill="white">
                        <use xlink:href="#path-3"></use>
                    </mask>
                    <g id="Clip-19"></g>
                    <path d="M6.77618692,11.1126667 C6.37208411,11.458 5.72379439,11.634 4.84193458,11.634 L3.41596262,11.634 L3.41596262,7.66466667 L4.9235514,7.66466667 C5.79545794,7.66466667 6.42118692,7.83533333 6.80073832,8.17 C7.18028972,8.51 7.38001869,8.982 7.38001869,9.60266667 C7.38001869,10.2613333 7.17763551,10.772 6.77618692,11.1126667 Z M8.72968224,6.48466667 C8.2811215,6.15533333 7.74828972,5.914 7.12853271,5.74933333 C6.51673832,5.59 5.84721495,5.51266667 5.13986916,5.51266667 L3.41596262,5.51266667 L3.41596262,2.80133333 L8.89357944,2.80133333 L8.89357944,0.49 L0.615775701,0.49 L0.615775701,13.7693333 L4.82269159,13.7693333 C5.63686916,13.7693333 6.38270093,13.676 7.04691589,13.4886667 C7.70184112,13.314 8.27050467,13.0446667 8.72968224,12.6986667 C9.18819626,12.3473333 9.54651402,11.908 9.79733645,11.3813333 C10.0514766,10.86 10.1768879,10.2393333 10.1768879,9.53733333 C10.1768879,8.85066667 10.0461682,8.24666667 9.78937383,7.74733333 C9.52992523,7.23666667 9.18023364,6.81933333 8.72968224,6.48466667 Z" id="Fill-18" fill="#0A0B09" mask="url(#mask-4)"></path>
                    <path d="M33.0428692,8.89466667 C32.8902523,9.46 32.6500467,9.94333333 32.3408318,10.36 C32.0183458,10.7773333 31.6228692,11.1126667 31.1391402,11.3593333 C30.6501028,11.606 30.0794486,11.7273333 29.4039533,11.7273333 C28.7536729,11.7273333 28.1889907,11.606 27.7026075,11.354 C27.2215327,11.1013333 26.8227383,10.7606667 26.5055607,10.3326667 C26.1890467,9.91 25.9514953,9.416 25.7929065,8.85066667 C25.6396262,8.28533333 25.5493832,7.69266667 25.5493832,7.072 C25.5493832,6.44666667 25.6396262,5.85866667 25.7929065,5.31 C25.9514953,4.766 26.1890467,4.28866667 26.5135234,3.86666667 C26.8419813,3.44933333 27.2434299,3.12 27.7324673,2.88333333 C28.2215047,2.642 28.8087477,2.52133333 29.4835794,2.52133333 C30.1391682,2.52133333 30.7071682,2.648 31.1855888,2.9 C31.6606916,3.15266667 32.0541776,3.48733333 32.3687009,3.91 C32.6772523,4.322 32.9035234,4.81066667 33.0488411,5.37 C33.1961495,5.92533333 33.2644953,6.52333333 33.2644953,7.14866667 C33.2644953,7.75866667 33.1881869,8.34066667 33.0428692,8.89466667 Z M34.4907383,2.32333333 C33.9094673,1.698 33.2014579,1.19866667 32.3441495,0.819333333 C31.4941402,0.440666667 30.510757,0.248666667 29.4039533,0.248666667 C28.445785,0.248666667 27.5904673,0.397333333 26.8333551,0.682 C26.0709346,0.968 25.4100374,1.35733333 24.8473458,1.85133333 C24.2873084,2.35066667 23.8287944,2.93266667 23.4791028,3.59666667 C23.1294112,4.26133333 22.8779252,4.96933333 22.7385794,5.70466667 L19.6869065,5.70466667 L19.6869065,0.49 L16.8867196,0.49 L16.8867196,13.7693333 L19.6869065,13.7693333 L19.6869065,8.02133333 L22.6589533,8.02133333 C22.7465421,8.834 22.965514,9.60266667 23.3065794,10.3213333 C23.656271,11.052 24.1127944,11.6886667 24.688757,12.2266667 C25.2687009,12.7753333 25.9594579,13.2086667 26.7623551,13.528 C27.5685701,13.8406667 28.4782991,14 29.4835794,14 C30.5897196,14 31.5651402,13.808 32.4038692,13.4233333 C33.2452523,13.0386667 33.9446355,12.5286667 34.5126355,11.886 C35.0733364,11.2493333 35.4966822,10.5133333 35.7859907,9.674 C36.0786168,8.84 36.2259252,7.96666667 36.2259252,7.072 C36.2259252,6.17666667 36.0786168,5.316 35.7859907,4.49733333 C35.4966822,3.66866667 35.0647103,2.944 34.4907383,2.32333333 Z" id="Fill-20" fill="#0A0B09" mask="url(#mask-4)"></path>
                    <path d="M67.6523832,8.89466667 C67.4991028,9.46 67.2642056,9.94333333 66.9364112,10.36 C66.630514,10.7773333 66.2317196,11.1126667 65.740028,11.3593333 C65.2642617,11.606 64.6909533,11.7273333 64.0300561,11.7273333 C63.3684953,11.7273333 62.8004953,11.606 62.3194206,11.354 C61.8330374,11.1013333 61.4349065,10.7606667 61.111757,10.3326667 C60.795243,9.91 60.5656542,9.416 60.407729,8.85066667 C60.253785,8.28533333 60.188757,7.69266667 60.188757,7.072 C60.188757,6.44666667 60.253785,5.85866667 60.4236542,5.31 C60.5815794,4.766 60.8171402,4.28866667 61.1389626,3.86666667 C61.466757,3.44933333 61.8715234,3.12 62.363215,2.88333333 C62.8549065,2.642 63.428215,2.52133333 64.0950841,2.52133333 C64.7506729,2.52133333 65.3193364,2.648 65.8004112,2.9 C66.2748505,3.15266667 66.663028,3.48733333 66.9742336,3.91 C67.2920748,4.322 67.5156916,4.81066667 67.663,5.37 C67.805,5.92533333 67.8813084,6.52333333 67.8813084,7.14866667 C67.8813084,7.75866667 67.805,8.34066667 67.6523832,8.89466667 Z M69.0995888,2.32333333 C68.520972,1.698 67.8162804,1.19866667 66.9636168,0.819333333 C66.1169252,0.440666667 65.1441589,0.248666667 64.0300561,0.248666667 C62.9152897,0.248666667 61.9425234,0.440666667 61.0905234,0.819333333 C60.2484766,1.19866667 59.5384766,1.704 58.9591963,2.34066667 C58.3911963,2.982 57.9539159,3.718 57.6533271,4.54133333 C57.3527383,5.37533333 57.2047664,6.24333333 57.2047664,7.14866667 C57.2047664,8.038 57.3587103,8.89466667 57.6586355,9.72333333 C57.9705047,10.558 58.4130935,11.2873333 58.9923738,11.914 C59.5769626,12.556 60.292271,13.0553333 61.1389626,13.4286667 C61.9969346,13.808 62.9750093,14 64.0950841,14 C65.1985701,14 66.1773084,13.808 67.0074112,13.4233333 C67.8594112,13.0386667 68.5594579,12.5286667 69.1168411,11.886 C69.6788692,11.2493333 70.1055327,10.5133333 70.4001495,9.674 C70.6901215,8.84 70.8374299,7.96666667 70.8374299,7.072 C70.8374299,6.17666667 70.6901215,5.316 70.4001495,4.49733333 C70.1055327,3.66866667 69.6788692,2.944 69.0995888,2.32333333 Z" id="Fill-21" fill="#0A0B09" mask="url(#mask-4)"></path>
                </g>
                <path d="M208.744234,58.7550078 C208.360903,59.1054772 207.742606,59.2823435 206.882977,59.2823435 L205.682043,59.2823435 L205.682043,55.1067323 L206.940286,55.1067323 C207.784633,55.1067323 208.392741,55.2783774 208.754422,55.622973 C209.132022,55.9721372 209.31541,56.4720619 209.31541,57.1384106 C209.31541,57.8687183 209.126291,58.4058437 208.744234,58.7550078 Z M210.610584,53.9946282 C210.180133,53.6559064 209.661808,53.4085546 209.074077,53.2473518 C208.471699,53.0809278 207.831753,53 207.144687,53 L203,53 L203,66 L205.682043,66 L205.682043,61.3727597 L206.856233,61.3727597 C207.648366,61.3727597 208.360903,61.2761685 208.995755,61.0934284 C209.624239,60.9159094 210.164851,60.6470204 210.610584,60.287414 C211.055681,59.927155 211.40208,59.4866208 211.637682,58.9488428 C211.879015,58.4117175 212,57.8047593 212,57.0953361 C212,56.3917867 211.879015,55.7893971 211.633225,55.2679351 C211.381067,54.7627893 211.04613,54.3326974 210.610584,53.9946282 Z" id="Fill-23" fill="#0A0B09"></path>
                <path d="M396.646066,32.445098 C396.646066,32.7607843 396.428698,32.9202614 395.999645,32.9202614 L395.204759,32.9202614 L395.204759,31.9594771 L395.993962,31.9594771 C396.428698,31.9594771 396.646066,32.1196078 396.646066,32.4339869 L396.646066,32.445098 Z M397.857219,32.3764706 L397.857219,32.3653595 C397.857219,31.9026144 397.676789,31.548366 397.323033,31.3137255 C397.006216,31.1026144 396.583555,31 396.055763,31 L394,31 L394,35 L395.204759,35 L395.204759,33.7888889 L395.732552,33.7888889 L396.608418,35 L398,35 L396.962884,33.6052288 C397.558871,33.3712418 397.857219,32.9660131 397.857219,32.3764706 Z" id="Fill-24" fill="#0A0B09"></path>
                <path d="M398.400385,35.3584968 C397.746027,36.0156302 396.968374,36.3348853 396.02376,36.3348853 C395.068871,36.3348853 394.284155,36.0156302 393.623375,35.3565015 C392.963236,34.6993681 392.642158,33.9191886 392.642158,32.9720652 C392.642158,32.0349185 392.961952,31.2680412 393.620164,30.6248753 C394.27966,29.9790489 395.065661,29.6651147 396.02376,29.6651147 C396.971585,29.6651147 397.750522,29.9790489 398.400385,30.6188893 C399.045112,31.2660459 399.357842,32.0349185 399.357842,32.9720652 C399.357842,33.9191886 399.043185,34.7013635 398.400385,35.3584968 Z M398.847327,30.142002 C398.075454,29.3804456 397.13405,29 396.02376,29 C394.902553,29 393.956012,29.3804456 393.179001,30.142002 C392.391074,30.9108746 392,31.8533422 392,32.9720652 C392,34.1000998 392.391074,35.0532092 393.179001,35.8360492 C393.956012,36.6109079 394.902553,37 396.02376,37 C397.13405,37 398.075454,36.6109079 398.847327,35.8360492 C399.613421,35.0532092 400,34.1000998 400,32.9720652 C400,31.8533422 399.613421,30.9108746 398.847327,30.142002 Z" id="Fill-25" fill="#0A0B09"></path>
            </g>
        </g>
    </g>
</svg>